<svg width="58" height="58" viewBox="0 0 58 58" fill="none" xmlns="http://www.w3.org/2000/svg">
<g style="mix-blend-mode:multiply">
<path fill-rule="evenodd" clip-rule="evenodd" d="M48.7498 16.8648C48.7952 17.0096 48.8406 17.1546 48.8708 17.3052C49.0027 17.9714 49.0772 18.6568 49.0772 19.3613C49.0772 20.0169 49.0006 20.6619 48.8814 21.2983C48.855 21.4434 48.8196 21.5824 48.7841 21.7216C48.768 21.7846 48.7519 21.8476 48.7367 21.9113C48.6302 22.3349 48.5047 22.7499 48.3493 23.1565C48.2684 23.3672 48.1854 23.5737 48.0917 23.778C47.9065 24.1824 47.6916 24.5698 47.4553 24.9508C47.4186 25.0099 47.3837 25.0699 47.3487 25.1298C47.2905 25.2298 47.2323 25.3297 47.1658 25.4255C47.1464 25.4531 47.1299 25.4817 47.1135 25.5101C47.0958 25.5408 47.0783 25.5713 47.0573 25.6C47.0408 25.6235 47.0179 25.6386 46.9953 25.6534C46.9769 25.6655 46.9588 25.6775 46.9444 25.6937C45.1023 28.162 42.2404 29.8272 38.9662 29.9907V30.004H16.6167V29.9907C13.343 29.8269 10.4816 28.1618 8.64163 25.6937C8.62671 25.6778 8.60852 25.6661 8.59029 25.6543C8.5669 25.6391 8.54343 25.624 8.52668 25.6C8.50417 25.5692 8.48562 25.5364 8.46699 25.5035C8.45214 25.4773 8.43725 25.451 8.42026 25.4255C8.35232 25.3277 8.29219 25.2255 8.23211 25.1234C8.19807 25.0656 8.16406 25.0078 8.12865 24.9508C7.89451 24.5698 7.6774 24.1824 7.49222 23.778C7.40158 23.5802 7.32289 23.3805 7.24267 23.1768L7.23467 23.1565C7.08142 22.7499 6.9537 22.3349 6.84941 21.9113C6.83594 21.8574 6.82203 21.804 6.80814 21.7507C6.76935 21.6017 6.73075 21.4535 6.70254 21.2983C6.58547 20.6619 6.50671 20.0169 6.50671 19.3613C6.50671 18.6568 6.58334 17.9714 6.71318 17.3052C6.7442 17.1501 6.79146 17.0009 6.83871 16.8518C6.86603 16.7656 6.89335 16.6794 6.91752 16.5921C6.92642 16.5594 6.93529 16.5267 6.94416 16.494C7.04563 16.12 7.14712 15.7459 7.29001 15.3916C7.36711 15.1989 7.46176 15.0185 7.55671 14.8376C7.59807 14.7588 7.63949 14.6799 7.67953 14.5998C7.69316 14.5727 7.70674 14.5457 7.7203 14.5187C7.86988 14.2208 8.01722 13.9274 8.19676 13.6484C8.3325 13.4336 8.48627 13.2355 8.64016 13.0372C8.67691 12.9898 8.71366 12.9425 8.75018 12.8949L8.75773 12.8852C8.96376 12.6202 9.16804 12.3576 9.39725 12.1116C9.6026 11.8901 9.82319 11.6915 10.0464 11.4905C10.0592 11.479 10.072 11.4675 10.0848 11.456C10.3359 11.2304 10.5914 11.0132 10.8638 10.8132C11.1171 10.6259 11.3768 10.4556 11.6471 10.2938C11.9451 10.1107 12.2495 9.94685 12.5645 9.79573C12.8412 9.66163 13.1179 9.54031 13.4074 9.43175C13.7522 9.29978 14.1077 9.19548 14.4695 9.10183C14.7569 9.0252 15.0378 8.9507 15.3358 8.90175C15.3921 8.89144 15.4467 8.87658 15.5013 8.86173C15.5706 8.84287 15.6399 8.82401 15.7126 8.81448C17.4601 3.74007 22.3004 0.20459 27.792 0.20459C33.2857 0.20459 38.126 3.74007 39.8714 8.81448C39.9442 8.82403 40.0143 8.84295 40.0844 8.86186C40.1393 8.87666 40.1941 8.89146 40.2502 8.90175C40.5461 8.9507 40.8292 9.0252 41.1144 9.10183C41.4763 9.19548 41.8317 9.29978 42.1765 9.43175C42.466 9.54031 42.7449 9.66163 43.0194 9.79573C43.3345 9.94685 43.6388 10.1107 43.9368 10.2938C44.2072 10.4556 44.469 10.6259 44.7223 10.8132C44.9926 11.0132 45.248 11.2304 45.4992 11.456C45.7376 11.6688 45.9696 11.8774 46.1888 12.1116C46.4208 12.3606 46.6273 12.6267 46.8338 12.8949C46.8608 12.9297 46.8878 12.9644 46.9148 12.999C47.0795 13.2101 47.243 13.4198 47.3893 13.6484C47.5662 13.9263 47.7129 14.2184 47.8618 14.515C47.876 14.5433 47.8902 14.5715 47.9044 14.5998C47.9445 14.6799 47.9859 14.7588 48.0272 14.8376C48.1222 15.0185 48.2168 15.1989 48.2939 15.3916C48.4392 15.747 48.541 16.1222 48.6428 16.4974C48.6514 16.529 48.66 16.5605 48.6685 16.5921C48.6931 16.6838 48.7215 16.7743 48.7498 16.8648Z" fill="#0097EB"/>
</g>
<g style="mix-blend-mode:multiply">
<path fill-rule="evenodd" clip-rule="evenodd" d="M25.1301 47.4585C24.9543 47.4585 24.777 47.4276 24.6028 47.3644C23.9368 47.1224 23.5206 46.4564 23.5977 45.7518L24.7817 34.8168H15.7089C15.1401 34.8168 14.6174 34.5038 14.3492 34.0012C14.0809 33.4987 14.1118 32.8912 14.4278 32.4179L26.5885 14.2263C26.9832 13.6358 27.7293 13.3907 28.3969 13.6358C29.0644 13.8779 29.4791 14.5439 29.402 15.2484L28.218 26.1835H37.2923C37.8612 26.1835 38.3838 26.4964 38.652 26.999C38.9187 27.5016 38.8894 28.109 38.5734 28.5823L26.4112 46.7739C26.1198 47.2118 25.6327 47.4585 25.1301 47.4585Z" fill="#3874FF"/>
</g>
</svg>
