<svg width="56" height="51" viewBox="0 0 56 51" fill="none" xmlns="http://www.w3.org/2000/svg">
<g style="mix-blend-mode:multiply">
<path fill-rule="evenodd" clip-rule="evenodd" d="M49.6805 11.5065L49.6791 11.505L45.9144 7.39801C44.8955 6.28951 43.1451 6.23701 42.1799 7.29451L29.8104 20.7885C29.3621 21.276 29.0844 21.924 29.0266 22.6095L28.5055 28.8645C28.4697 29.307 28.6141 29.745 28.9029 30.06C29.1627 30.3435 29.5134 30.4995 29.875 30.4995C29.9176 30.4995 29.9589 30.498 30.0001 30.4935L35.7339 29.925C36.3636 29.862 36.9562 29.5605 37.4031 29.073L49.774 15.5775C50.775 14.4825 50.7324 12.6555 49.6805 11.5065Z" fill="#3874FF"/>
</g>
<g style="mix-blend-mode:multiply">
<path fill-rule="evenodd" clip-rule="evenodd" d="M39.4826 17.1559L30.5926 7.15594C30.2146 6.73794 29.6766 6.49994 29.1126 6.49994H13.1126C10.2926 6.49994 8.00061 8.74394 8.00061 11.4999V41.4999C8.00061 44.2559 10.2926 46.4999 13.1126 46.4999H34.8886C37.7086 46.4999 40.0006 44.2559 40.0006 41.4999V18.4999C40.0006 18.0019 39.8166 17.5239 39.4826 17.1559Z" fill="#0097EB"/>
</g>
</svg>
