<svg width="55" height="62" viewBox="0 0 55 62" fill="none" xmlns="http://www.w3.org/2000/svg">
<g style="mix-blend-mode:multiply">
<path fill-rule="evenodd" clip-rule="evenodd" d="M22.0797 33.4271C22.0494 33.3968 22.02 33.3674 21.9897 33.3352C19.3647 30.667 17.9547 27.1354 18.0156 23.3938C18.1337 16.3065 23.9869 10.2303 31.0626 9.8484C33.2677 9.72809 35.4153 10.126 37.4437 11.0297C37.924 11.2407 38.234 11.717 38.2371 12.2428C38.242 12.7685 37.9391 13.2479 37.4627 13.4688C33.5107 15.3053 30.9597 19.3009 30.9663 23.6497C30.9719 27.9975 33.5359 32.0003 37.4971 33.8448C37.9746 34.0643 38.2751 34.5463 38.2715 35.0692C38.267 35.5949 37.9556 36.0696 37.4773 36.283C35.6902 37.0785 33.7997 37.4809 31.8588 37.4789C28.1618 37.4777 24.6933 36.0384 22.0797 33.4271" fill="#3874FF"/>
</g>
<g style="mix-blend-mode:multiply">
<path fill-rule="evenodd" clip-rule="evenodd" d="M26.5 56.9332C25.7514 56.9332 25.0027 56.7547 24.338 56.3934L23.6689 56.0301C13.155 50.3393 6.625 39.5953 6.625 27.9886V27.6804C6.625 26.1526 7.48625 24.7331 8.87308 23.9787L24.3358 15.6104C25.6719 14.8879 27.3303 14.8858 28.662 15.6083L44.1225 23.9766C45.5137 24.7331 46.375 26.1526 46.375 27.6804V27.9886C46.375 39.5953 39.845 50.3393 29.3311 56.0301L28.6642 56.3913C27.9972 56.7526 27.2486 56.9332 26.5 56.9332" fill="#0097EB"/>
</g>
</svg>
